<mxfile host="app.diagrams.net" modified="2020-11-17T03:17:16.522Z" agent="5.0 (Macintosh; Intel Mac OS X 11_0_0) AppleWebKit/537.36 (KHTML, like Gecko) Chrome/86.0.4240.193 Safari/537.36" etag="AThor7Fs9QxDqlhL26l7" version="13.9.9" type="github">
  <diagram id="9V43UQf9ATpL4nqVWi98" name="Page-1">
    <mxGraphModel dx="704" dy="783" grid="1" gridSize="10" guides="1" tooltips="1" connect="1" arrows="1" fold="1" page="1" pageScale="1" pageWidth="827" pageHeight="1169" math="0" shadow="0">
      <root>
        <mxCell id="0" />
        <mxCell id="1" parent="0" />
        <mxCell id="bWXKysibdHLfa8OfTJlv-42" style="edgeStyle=orthogonalEdgeStyle;curved=1;rounded=0;orthogonalLoop=1;jettySize=auto;html=1;exitX=1;exitY=0.5;exitDx=0;exitDy=0;strokeColor=#525252;" parent="1" source="bWXKysibdHLfa8OfTJlv-6" target="bWXKysibdHLfa8OfTJlv-34" edge="1">
          <mxGeometry relative="1" as="geometry" />
        </mxCell>
        <mxCell id="bWXKysibdHLfa8OfTJlv-6" value="" style="rounded=0;whiteSpace=wrap;html=1;" parent="1" vertex="1">
          <mxGeometry x="370" y="95" width="160" height="345" as="geometry" />
        </mxCell>
        <mxCell id="bWXKysibdHLfa8OfTJlv-24" style="edgeStyle=orthogonalEdgeStyle;curved=1;rounded=0;orthogonalLoop=1;jettySize=auto;html=1;exitX=0.5;exitY=0.5;exitDx=0;exitDy=0;exitPerimeter=0;entryX=0;entryY=0.5;entryDx=0;entryDy=0;strokeColor=#525252;" parent="1" target="bWXKysibdHLfa8OfTJlv-7" edge="1">
          <mxGeometry relative="1" as="geometry">
            <mxPoint x="235" y="260" as="sourcePoint" />
          </mxGeometry>
        </mxCell>
        <mxCell id="bWXKysibdHLfa8OfTJlv-25" style="edgeStyle=orthogonalEdgeStyle;curved=1;rounded=0;orthogonalLoop=1;jettySize=auto;html=1;exitX=0.5;exitY=0.5;exitDx=0;exitDy=0;exitPerimeter=0;entryX=0;entryY=0.5;entryDx=0;entryDy=0;strokeColor=#525252;" parent="1" target="bWXKysibdHLfa8OfTJlv-8" edge="1">
          <mxGeometry relative="1" as="geometry">
            <mxPoint x="235" y="260" as="sourcePoint" />
          </mxGeometry>
        </mxCell>
        <mxCell id="bWXKysibdHLfa8OfTJlv-26" style="edgeStyle=orthogonalEdgeStyle;curved=1;rounded=0;orthogonalLoop=1;jettySize=auto;html=1;exitX=0.5;exitY=0.5;exitDx=0;exitDy=0;exitPerimeter=0;entryX=0;entryY=0.5;entryDx=0;entryDy=0;strokeColor=#525252;" parent="1" target="bWXKysibdHLfa8OfTJlv-16" edge="1">
          <mxGeometry relative="1" as="geometry">
            <mxPoint x="235" y="260" as="sourcePoint" />
          </mxGeometry>
        </mxCell>
        <mxCell id="bWXKysibdHLfa8OfTJlv-27" style="edgeStyle=orthogonalEdgeStyle;curved=1;rounded=0;orthogonalLoop=1;jettySize=auto;html=1;exitX=0.5;exitY=0.5;exitDx=0;exitDy=0;exitPerimeter=0;entryX=0;entryY=0.5;entryDx=0;entryDy=0;strokeColor=#525252;" parent="1" target="bWXKysibdHLfa8OfTJlv-9" edge="1">
          <mxGeometry relative="1" as="geometry">
            <mxPoint x="235" y="260" as="sourcePoint" />
          </mxGeometry>
        </mxCell>
        <mxCell id="bWXKysibdHLfa8OfTJlv-28" style="edgeStyle=orthogonalEdgeStyle;curved=1;rounded=0;orthogonalLoop=1;jettySize=auto;html=1;exitX=0.5;exitY=0.5;exitDx=0;exitDy=0;exitPerimeter=0;entryX=0;entryY=0.5;entryDx=0;entryDy=0;strokeColor=#525252;" parent="1" target="bWXKysibdHLfa8OfTJlv-10" edge="1">
          <mxGeometry relative="1" as="geometry">
            <mxPoint x="235" y="260" as="sourcePoint" />
          </mxGeometry>
        </mxCell>
        <mxCell id="bWXKysibdHLfa8OfTJlv-29" style="edgeStyle=orthogonalEdgeStyle;curved=1;rounded=0;orthogonalLoop=1;jettySize=auto;html=1;exitX=0.5;exitY=0.5;exitDx=0;exitDy=0;exitPerimeter=0;entryX=0;entryY=0.5;entryDx=0;entryDy=0;strokeColor=#525252;" parent="1" target="bWXKysibdHLfa8OfTJlv-11" edge="1">
          <mxGeometry relative="1" as="geometry">
            <mxPoint x="235" y="260" as="sourcePoint" />
          </mxGeometry>
        </mxCell>
        <mxCell id="bWXKysibdHLfa8OfTJlv-30" style="edgeStyle=orthogonalEdgeStyle;curved=1;rounded=0;orthogonalLoop=1;jettySize=auto;html=1;exitX=0.5;exitY=0.5;exitDx=0;exitDy=0;exitPerimeter=0;entryX=0;entryY=0.5;entryDx=0;entryDy=0;strokeColor=#525252;" parent="1" target="bWXKysibdHLfa8OfTJlv-12" edge="1">
          <mxGeometry relative="1" as="geometry">
            <mxPoint x="235" y="260" as="sourcePoint" />
          </mxGeometry>
        </mxCell>
        <mxCell id="bWXKysibdHLfa8OfTJlv-31" style="edgeStyle=orthogonalEdgeStyle;curved=1;rounded=0;orthogonalLoop=1;jettySize=auto;html=1;exitX=0.5;exitY=0.5;exitDx=0;exitDy=0;exitPerimeter=0;entryX=0;entryY=0.5;entryDx=0;entryDy=0;strokeColor=#525252;" parent="1" target="bWXKysibdHLfa8OfTJlv-13" edge="1">
          <mxGeometry relative="1" as="geometry">
            <mxPoint x="235" y="260" as="sourcePoint" />
          </mxGeometry>
        </mxCell>
        <mxCell id="bWXKysibdHLfa8OfTJlv-32" style="edgeStyle=orthogonalEdgeStyle;curved=1;rounded=0;orthogonalLoop=1;jettySize=auto;html=1;exitX=0.5;exitY=0.5;exitDx=0;exitDy=0;exitPerimeter=0;entryX=0;entryY=0.5;entryDx=0;entryDy=0;strokeColor=#525252;" parent="1" target="bWXKysibdHLfa8OfTJlv-14" edge="1">
          <mxGeometry relative="1" as="geometry">
            <mxPoint x="235" y="260" as="sourcePoint" />
          </mxGeometry>
        </mxCell>
        <mxCell id="bWXKysibdHLfa8OfTJlv-33" style="edgeStyle=orthogonalEdgeStyle;curved=1;rounded=0;orthogonalLoop=1;jettySize=auto;html=1;exitX=0.5;exitY=0.5;exitDx=0;exitDy=0;exitPerimeter=0;entryX=0;entryY=0.5;entryDx=0;entryDy=0;strokeColor=#525252;" parent="1" target="bWXKysibdHLfa8OfTJlv-15" edge="1">
          <mxGeometry relative="1" as="geometry">
            <mxPoint x="235" y="260" as="sourcePoint" />
          </mxGeometry>
        </mxCell>
        <mxCell id="bWXKysibdHLfa8OfTJlv-7" value="Login (1)&amp;nbsp;" style="rounded=1;whiteSpace=wrap;html=1;" parent="1" vertex="1">
          <mxGeometry x="390" y="110" width="120" height="20" as="geometry" />
        </mxCell>
        <mxCell id="bWXKysibdHLfa8OfTJlv-8" value="Add Customer (2)" style="rounded=1;whiteSpace=wrap;html=1;" parent="1" vertex="1">
          <mxGeometry x="390" y="140" width="120" height="20" as="geometry" />
        </mxCell>
        <mxCell id="bWXKysibdHLfa8OfTJlv-9" value="Edit Customer (4)" style="rounded=1;whiteSpace=wrap;html=1;" parent="1" vertex="1">
          <mxGeometry x="390" y="210" width="120" height="20" as="geometry" />
        </mxCell>
        <mxCell id="bWXKysibdHLfa8OfTJlv-10" value="Open Account (5)" style="rounded=1;whiteSpace=wrap;html=1;" parent="1" vertex="1">
          <mxGeometry x="390" y="240" width="120" height="20" as="geometry" />
        </mxCell>
        <mxCell id="bWXKysibdHLfa8OfTJlv-11" value="Close Account (6)" style="rounded=1;whiteSpace=wrap;html=1;" parent="1" vertex="1">
          <mxGeometry x="390" y="270" width="120" height="20" as="geometry" />
        </mxCell>
        <mxCell id="bWXKysibdHLfa8OfTJlv-12" value="Deposit Amount (7)" style="rounded=1;whiteSpace=wrap;html=1;" parent="1" vertex="1">
          <mxGeometry x="390" y="300" width="120" height="20" as="geometry" />
        </mxCell>
        <mxCell id="bWXKysibdHLfa8OfTJlv-13" value="Withdraw Amount (8)" style="rounded=1;whiteSpace=wrap;html=1;" parent="1" vertex="1">
          <mxGeometry x="390" y="330" width="120" height="20" as="geometry" />
        </mxCell>
        <mxCell id="bWXKysibdHLfa8OfTJlv-14" value="Overdraft Trans. (9)" style="rounded=1;whiteSpace=wrap;html=1;" parent="1" vertex="1">
          <mxGeometry x="390" y="360" width="120" height="20" as="geometry" />
        </mxCell>
        <mxCell id="bWXKysibdHLfa8OfTJlv-15" value="Generate Transaction Statement (10)" style="rounded=1;whiteSpace=wrap;html=1;" parent="1" vertex="1">
          <mxGeometry x="390" y="390" width="120" height="30" as="geometry" />
        </mxCell>
        <mxCell id="bWXKysibdHLfa8OfTJlv-16" value="View Customer Details (3)" style="rounded=1;whiteSpace=wrap;html=1;" parent="1" vertex="1">
          <mxGeometry x="390" y="170" width="120" height="30" as="geometry" />
        </mxCell>
        <mxCell id="bWXKysibdHLfa8OfTJlv-19" value="Java Remote Procedures" style="text;html=1;strokeColor=none;fillColor=none;align=center;verticalAlign=middle;whiteSpace=wrap;rounded=0;fontStyle=1" parent="1" vertex="1">
          <mxGeometry x="375" y="70" width="150" height="20" as="geometry" />
        </mxCell>
        <mxCell id="bWXKysibdHLfa8OfTJlv-34" value="" style="shape=cylinder3;whiteSpace=wrap;html=1;boundedLbl=1;backgroundOutline=1;size=15;" parent="1" vertex="1">
          <mxGeometry x="610" y="212.5" width="80" height="110" as="geometry" />
        </mxCell>
        <mxCell id="bWXKysibdHLfa8OfTJlv-35" value="SQL Database" style="text;html=1;strokeColor=none;fillColor=none;align=center;verticalAlign=middle;whiteSpace=wrap;rounded=0;fontStyle=1" parent="1" vertex="1">
          <mxGeometry x="590" y="190" width="120" height="20" as="geometry" />
        </mxCell>
        <mxCell id="bWXKysibdHLfa8OfTJlv-43" value="Tables (11)" style="text;html=1;strokeColor=none;fillColor=none;align=center;verticalAlign=middle;whiteSpace=wrap;rounded=0;" parent="1" vertex="1">
          <mxGeometry x="590" y="260" width="120" height="20" as="geometry" />
        </mxCell>
        <mxCell id="8pvSKaztsbaPSzn9CVBH-1" value="Seb" style="text;html=1;strokeColor=none;fillColor=none;align=center;verticalAlign=middle;whiteSpace=wrap;rounded=0;" parent="1" vertex="1">
          <mxGeometry x="530" y="140" width="40" height="20" as="geometry" />
        </mxCell>
        <mxCell id="8pvSKaztsbaPSzn9CVBH-2" value="Seb" style="text;html=1;strokeColor=none;fillColor=none;align=center;verticalAlign=middle;whiteSpace=wrap;rounded=0;" parent="1" vertex="1">
          <mxGeometry x="530" y="175" width="40" height="20" as="geometry" />
        </mxCell>
        <mxCell id="8pvSKaztsbaPSzn9CVBH-3" value="Ash" style="text;html=1;strokeColor=none;fillColor=none;align=center;verticalAlign=middle;whiteSpace=wrap;rounded=0;" parent="1" vertex="1">
          <mxGeometry x="530" y="300" width="40" height="20" as="geometry" />
        </mxCell>
        <mxCell id="8pvSKaztsbaPSzn9CVBH-4" value="Ash" style="text;html=1;strokeColor=none;fillColor=none;align=center;verticalAlign=middle;whiteSpace=wrap;rounded=0;" parent="1" vertex="1">
          <mxGeometry x="530" y="330" width="40" height="20" as="geometry" />
        </mxCell>
        <mxCell id="8pvSKaztsbaPSzn9CVBH-5" value="Winton" style="text;html=1;strokeColor=none;fillColor=none;align=center;verticalAlign=middle;whiteSpace=wrap;rounded=0;" parent="1" vertex="1">
          <mxGeometry x="540" y="210" width="40" height="20" as="geometry" />
        </mxCell>
        <mxCell id="8pvSKaztsbaPSzn9CVBH-6" value="Winton" style="text;html=1;strokeColor=none;fillColor=none;align=center;verticalAlign=middle;whiteSpace=wrap;rounded=0;" parent="1" vertex="1">
          <mxGeometry x="700" y="260" width="40" height="20" as="geometry" />
        </mxCell>
        <mxCell id="8pvSKaztsbaPSzn9CVBH-7" value="Patrick" style="text;html=1;strokeColor=none;fillColor=none;align=center;verticalAlign=middle;whiteSpace=wrap;rounded=0;" parent="1" vertex="1">
          <mxGeometry x="540" y="240" width="40" height="20" as="geometry" />
        </mxCell>
        <mxCell id="8pvSKaztsbaPSzn9CVBH-8" value="Patrick" style="text;html=1;strokeColor=none;fillColor=none;align=center;verticalAlign=middle;whiteSpace=wrap;rounded=0;" parent="1" vertex="1">
          <mxGeometry x="540" y="270" width="40" height="20" as="geometry" />
        </mxCell>
        <mxCell id="8pvSKaztsbaPSzn9CVBH-9" value="Lachlan" style="text;html=1;strokeColor=none;fillColor=none;align=center;verticalAlign=middle;whiteSpace=wrap;rounded=0;" parent="1" vertex="1">
          <mxGeometry x="540" y="360" width="40" height="20" as="geometry" />
        </mxCell>
        <mxCell id="8pvSKaztsbaPSzn9CVBH-12" value="Lachlan" style="text;html=1;strokeColor=none;fillColor=none;align=center;verticalAlign=middle;whiteSpace=wrap;rounded=0;" parent="1" vertex="1">
          <mxGeometry x="540" y="395" width="40" height="20" as="geometry" />
        </mxCell>
        <mxCell id="8pvSKaztsbaPSzn9CVBH-13" value="Lachlan" style="text;html=1;strokeColor=none;fillColor=none;align=center;verticalAlign=middle;whiteSpace=wrap;rounded=0;" parent="1" vertex="1">
          <mxGeometry x="540" y="110" width="40" height="20" as="geometry" />
        </mxCell>
        <mxCell id="5f0gZRf1hawvi2LlgI6R-5" style="edgeStyle=orthogonalEdgeStyle;curved=1;rounded=0;orthogonalLoop=1;jettySize=auto;html=1;strokeColor=#525252;entryX=0;entryY=0.5;entryDx=0;entryDy=0;" parent="1" source="5f0gZRf1hawvi2LlgI6R-1" target="5f0gZRf1hawvi2LlgI6R-4" edge="1">
          <mxGeometry relative="1" as="geometry">
            <mxPoint x="150" y="290" as="targetPoint" />
          </mxGeometry>
        </mxCell>
        <mxCell id="5f0gZRf1hawvi2LlgI6R-1" value="Bank Clerk" style="shape=umlActor;verticalLabelPosition=bottom;verticalAlign=top;html=1;outlineConnect=0;" parent="1" vertex="1">
          <mxGeometry x="100" y="230" width="30" height="60" as="geometry" />
        </mxCell>
        <mxCell id="5f0gZRf1hawvi2LlgI6R-4" value="User&lt;br&gt;Interace" style="rhombus;whiteSpace=wrap;html=1;fontStyle=1" parent="1" vertex="1">
          <mxGeometry x="160" y="220" width="80" height="80" as="geometry" />
        </mxCell>
        <mxCell id="5f0gZRf1hawvi2LlgI6R-6" value="Java GUI or Webapge" style="text;html=1;strokeColor=none;fillColor=none;align=center;verticalAlign=middle;whiteSpace=wrap;rounded=0;fontStyle=1" parent="1" vertex="1">
          <mxGeometry x="125" y="192.5" width="150" height="20" as="geometry" />
        </mxCell>
      </root>
    </mxGraphModel>
  </diagram>
</mxfile>
